<?xml version="1.0" standalone="no"?>
<!DOCTYPE svg PUBLIC "-//W3C//DTD SVG 20010904//EN"
 "http://www.w3.org/TR/2001/REC-SVG-20010904/DTD/svg10.dtd">
<svg version="1.0" xmlns="http://www.w3.org/2000/svg"
 width="217.000000pt" height="175.000000pt" viewBox="0 0 217.000000 175.000000"
 preserveAspectRatio="xMidYMid meet">

<g transform="translate(0.000000,175.000000) scale(0.100000,-0.100000)"
fill="#000000" stroke="none">
<path d="M711 1654 c-190 -51 -349 -210 -406 -407 -20 -69 -22 -213 -5 -289
22 -97 79 -197 155 -273 81 -82 160 -127 271 -155 135 -35 272 -21 392 38 57
29 57 29 87 11 20 -13 40 -17 61 -13 29 5 37 -3 226 -223 107 -125 205 -237
217 -247 13 -12 41 -21 74 -24 47 -4 55 -1 80 23 35 36 38 108 7 148 -12 15
-125 115 -251 223 -214 182 -231 199 -226 224 4 16 -1 41 -11 61 -17 33 -17
35 11 91 157 317 -29 721 -373 813 -70 19 -238 18 -309 -1z m301 -114 c215
-66 358 -299 320 -522 -33 -188 -169 -334 -357 -383 -323 -83 -639 217 -571
542 60 289 329 449 608 363z"/>
<path d="M733 1480 c-82 -29 -163 -90 -163 -122 0 -27 36 -22 78 12 88 70 183
91 298 65 83 -18 109 -12 88 23 -27 43 -208 56 -301 22z"/>
<path d="M1195 1251 c-3 -6 -3 -16 0 -22 4 -6 13 -43 19 -82 11 -66 14 -72 37
-72 23 0 24 3 21 53 -4 77 -23 126 -49 130 -11 2 -24 -2 -28 -7z"/>
</g>
</svg>
