<?xml version="1.0" standalone="no"?>
<!DOCTYPE svg PUBLIC "-//W3C//DTD SVG 20010904//EN"
 "http://www.w3.org/TR/2001/REC-SVG-20010904/DTD/svg10.dtd">
<svg version="1.0" xmlns="http://www.w3.org/2000/svg"
 width="212.000000pt" height="193.000000pt" viewBox="0 0 212.000000 193.000000"
 preserveAspectRatio="xMidYMid meet">

<g transform="translate(0.000000,193.000000) scale(0.100000,-0.100000)"
fill="#000000" stroke="none">
<path d="M230 1835 c-6 -8 -10 -22 -8 -31 2 -10 68 -58 153 -110 83 -51 158
-103 167 -116 9 -13 44 -138 78 -278 33 -140 64 -265 70 -277 12 -28 70 -34
70 -8 0 9 -32 147 -71 308 -55 228 -75 297 -92 313 -26 25 -331 214 -345 214
-5 0 -15 -7 -22 -15z"/>
<path d="M1415 1584 c-63 -53 -115 -100 -115 -104 0 -47 45 -52 92 -12 18 15
59 49 90 76 l57 47 146 -175 c90 -107 154 -176 165 -176 22 0 44 25 37 43 -11
29 -328 397 -342 397 -8 0 -66 -43 -130 -96z"/>
<path d="M1033 1548 c-11 -13 -62 -79 -112 -148 -96 -131 -108 -162 -60 -168
22 -3 37 13 118 123 51 69 95 125 98 125 3 0 91 -61 195 -135 105 -74 196
-135 203 -135 20 0 37 27 30 47 -7 21 -415 313 -437 313 -8 0 -24 -10 -35 -22z"/>
<path d="M783 1160 c-25 -10 -30 -29 -11 -48 9 -9 146 -12 555 -12 299 0 543
-3 543 -6 0 -17 -110 -567 -115 -575 -4 -5 -177 -9 -421 -9 l-414 0 0 -40 0
-40 440 0 440 0 13 23 c8 12 42 172 77 356 62 323 63 334 45 347 -15 12 -118
14 -574 13 -307 0 -566 -4 -578 -9z"/>
<path d="M180 915 c-6 -8 -10 -22 -8 -32 3 -17 22 -18 283 -18 261 0 280 1
283 18 9 45 -5 47 -283 47 -217 0 -265 -3 -275 -15z"/>
<path d="M374 746 c-15 -12 -17 -18 -8 -33 10 -17 34 -18 301 -21 251 -2 292
0 303 13 11 13 10 19 -5 35 -17 19 -32 20 -295 20 -225 0 -280 -3 -296 -14z"/>
<path d="M244 575 c-4 -8 -4 -22 0 -30 8 -23 531 -23 540 0 3 8 3 22 0 30 -9
23 -532 23 -540 0z"/>
<path d="M1003 369 c-149 -73 -95 -299 71 -299 60 0 107 25 137 72 16 26 19
46 17 95 -3 53 -9 68 -33 94 -57 60 -121 73 -192 38z m135 -85 c33 -37 30 -86
-9 -118 -39 -33 -78 -33 -113 -1 -47 44 -29 124 34 148 26 10 64 -3 88 -29z"/>
<path d="M1585 383 c-35 -9 -87 -54 -101 -89 -21 -50 -17 -102 11 -149 75
-129 276 -83 292 66 11 109 -94 198 -202 172z m74 -74 c63 -22 77 -107 24
-149 -37 -29 -79 -26 -114 9 -54 55 -31 116 57 151 1 0 15 -5 33 -11z"/>
</g>
</svg>
