<?xml version="1.0" standalone="no"?>
<!DOCTYPE svg PUBLIC "-//W3C//DTD SVG 20010904//EN"
 "http://www.w3.org/TR/2001/REC-SVG-20010904/DTD/svg10.dtd">
<svg version="1.0" xmlns="http://www.w3.org/2000/svg"
 width="260.000000pt" height="120.000000pt" viewBox="0 0 260.000000 120.000000"
 preserveAspectRatio="xMidYMid meet">

<g transform="translate(0.000000,120.000000) scale(0.100000,-0.100000)"
fill="#000000" stroke="none">
<path d="M1771 1114 c-21 -26 -21 -36 -21 -511 l0 -484 25 -24 24 -25 364 0
c353 0 365 1 391 21 l26 20 0 493 0 493 -23 21 c-23 22 -27 22 -394 22 l-372
0 -20 -26z m757 -26 c9 -9 12 -129 12 -479 0 -412 -2 -469 -16 -483 -13 -14
-60 -16 -359 -16 -299 0 -346 2 -359 16 -14 14 -16 71 -16 479 0 408 2 465 16
479 13 14 60 16 363 16 256 0 350 -3 359 -12z"/>
<path d="M1843 1063 c-10 -3 -13 -43 -13 -149 l0 -144 335 0 336 0 -3 148 -3
147 -320 2 c-176 1 -326 -1 -332 -4z m617 -148 l0 -105 -292 2 -293 3 -3 103
-3 102 296 0 295 0 0 -105z"/>
<path d="M2322 968 c-7 -7 -12 -31 -12 -55 0 -43 17 -63 54 -63 39 0 60 65 36
111 -12 22 -59 26 -78 7z m53 -37 c7 -23 -4 -53 -19 -48 -18 6 -20 67 -2 67 8
0 17 -8 21 -19z"/>
<path d="M1834 727 c-3 -8 -4 -47 -2 -88 l3 -74 85 0 85 0 0 85 0 85 -83 3
c-63 2 -84 0 -88 -11z m134 -79 l-3 -43 -45 0 -45 0 -3 43 -3 42 51 0 51 0 -3
-42z"/>
<path d="M2075 717 c-3 -12 -5 -52 -3 -87 l3 -65 88 -3 87 -3 0 91 0 90 -85 0
c-80 0 -85 -1 -90 -23z m133 -69 c-3 -43 -3 -43 -45 -46 l-43 -3 0 45 0 46 46
0 45 0 -3 -42z"/>
<path d="M2327 734 c-4 -4 -7 -45 -7 -91 l0 -84 88 3 87 3 0 85 0 85 -80 3
c-45 1 -84 0 -88 -4z m123 -90 l0 -45 -42 3 c-43 3 -43 3 -46 46 l-3 42 45 0
46 0 0 -46z"/>
<path d="M1834 517 c-3 -8 -4 -47 -2 -88 l3 -74 85 0 85 0 3 88 3 87 -86 0
c-62 0 -87 -4 -91 -13z m134 -74 l3 -43 -50 0 -51 0 0 38 c0 49 5 54 55 50 39
-3 40 -4 43 -45z"/>
<path d="M2077 523 c-10 -9 -8 -145 2 -161 5 -9 30 -12 87 -10 l79 3 3 88 3
87 -84 0 c-46 0 -87 -3 -90 -7z m133 -78 l0 -45 -45 0 -45 0 0 45 0 45 45 0
45 0 0 -45z"/>
<path d="M2320 340 l0 -191 88 3 87 3 0 185 0 185 -87 3 -88 3 0 -191z m130 0
l0 -150 -45 0 -45 0 0 150 0 150 45 0 45 0 0 -150z"/>
<path d="M1830 235 l0 -85 90 0 90 0 0 85 0 85 -90 0 -90 0 0 -85z m140 0 l0
-45 -50 0 -50 0 0 45 0 45 50 0 50 0 0 -45z"/>
<path d="M2074 307 c-3 -8 -4 -45 -2 -83 l3 -69 88 -3 87 -3 0 86 0 85 -85 0
c-63 0 -87 -4 -91 -13z m136 -72 l0 -45 -45 0 -45 0 0 45 0 45 45 0 45 0 0
-45z"/>
<path d="M265 928 c-51 -56 -54 -81 -12 -86 27 -3 27 -4 27 -76 0 -65 -2 -74
-20 -79 -18 -5 -20 -14 -20 -76 l0 -71 -105 0 c-67 0 -105 -4 -105 -10 0 -6
51 -110 113 -230 l112 -220 614 3 615 2 102 220 c74 161 99 223 91 233 -7 9
-44 12 -141 10 l-131 -3 -30 -55 -30 -55 -3 92 -3 92 -72 3 -72 3 -3 103 -3
103 -137 -3 -137 -3 -3 -102 -3 -103 -69 0 -70 0 0 -100 0 -100 -30 0 -30 0 0
131 c0 122 -1 131 -20 136 -18 5 -20 14 -20 79 l0 74 29 0 c50 0 46 19 -15 81
l-58 59 -157 0 -157 0 -47 -52z m370 -18 l29 -30 -187 0 c-103 0 -187 3 -187
7 0 4 10 17 22 30 20 22 28 23 158 23 l136 0 29 -30z m-5 -145 l0 -75 -155 0
-155 0 0 75 0 75 155 0 155 0 0 -75z m525 -60 l0 -80 -100 0 -100 0 -3 83 -3
83 103 -3 103 -3 0 -80z m-485 -170 l0 -115 -38 0 c-33 0 -45 8 -97 60 -50 51
-56 60 -37 60 19 0 22 5 22 40 l0 40 -45 0 -45 0 0 -41 c0 -24 -4 -38 -10 -34
-5 3 -10 22 -10 41 0 33 -1 34 -40 34 l-40 0 0 -41 c0 -36 -2 -40 -22 -37 -20
3 -23 10 -26 56 l-3 52 195 0 196 0 0 -115z m-282 47 c2 -7 -3 -12 -12 -12 -9
0 -16 7 -16 16 0 17 22 14 28 -4z m102 3 c0 -8 -7 -15 -15 -15 -16 0 -20 12
-8 23 11 12 23 8 23 -8z m520 -85 l0 -80 -100 0 -100 0 0 80 0 80 100 0 100 0
0 -80z m290 0 l0 -80 -105 0 -105 0 0 80 0 80 105 0 105 0 0 -80z m-791 -55
l68 -65 393 2 393 3 35 63 34 62 99 0 c54 0 99 -3 99 -6 0 -4 -39 -92 -87
-195 l-87 -189 -587 0 -587 0 -96 186 c-53 102 -96 190 -96 195 0 5 74 9 176
9 l176 0 67 -65z"/>
<path d="M380 770 l0 -40 40 0 40 0 0 40 0 40 -40 0 -40 0 0 -40z m50 -5 c0
-8 -7 -15 -15 -15 -8 0 -15 7 -15 15 0 8 7 15 15 15 8 0 15 -7 15 -15z"/>
<path d="M480 770 l0 -40 40 0 40 0 0 40 0 40 -40 0 -40 0 0 -40z m60 -5 c0
-8 -7 -15 -15 -15 -8 0 -15 7 -15 15 0 8 7 15 15 15 8 0 15 -7 15 -15z"/>
<path d="M540 580 l0 -40 40 0 40 0 0 40 0 40 -40 0 -40 0 0 -40z m58 2 c2 -7
-3 -12 -12 -12 -9 0 -16 7 -16 16 0 17 22 14 28 -4z"/>
<path d="M360 281 l0 -41 46 0 45 0 -3 38 c-3 36 -4 37 -45 40 l-43 3 0 -40z
m60 -6 c0 -8 -7 -15 -15 -15 -8 0 -15 7 -15 15 0 8 7 15 15 15 8 0 15 -7 15
-15z"/>
<path d="M470 280 l0 -40 40 0 40 0 0 40 0 40 -40 0 -40 0 0 -40z m50 -6 c0
-17 -22 -14 -28 4 -2 7 3 12 12 12 9 0 16 -7 16 -16z"/>
<path d="M570 280 l0 -40 40 0 40 0 0 40 0 40 -40 0 -40 0 0 -40z m60 -5 c0
-8 -7 -15 -15 -15 -8 0 -15 7 -15 15 0 8 7 15 15 15 8 0 15 -7 15 -15z"/>
<path d="M680 280 l0 -40 40 0 40 0 0 40 0 40 -40 0 -40 0 0 -40z m50 -6 c0
-9 -5 -14 -12 -12 -18 6 -21 28 -4 28 9 0 16 -7 16 -16z"/>
<path d="M780 280 l0 -40 40 0 40 0 0 40 0 40 -40 0 -40 0 0 -40z m60 -5 c0
-8 -7 -15 -15 -15 -8 0 -15 7 -15 15 0 8 7 15 15 15 8 0 15 -7 15 -15z"/>
<path d="M890 280 l0 -40 40 0 40 0 0 40 0 40 -40 0 -40 0 0 -40z m50 -5 c0
-8 -7 -15 -15 -15 -8 0 -15 7 -15 15 0 8 7 15 15 15 8 0 15 -7 15 -15z"/>
<path d="M990 280 l0 -40 40 0 40 0 0 40 0 40 -40 0 -40 0 0 -40z m60 -5 c0
-8 -7 -15 -15 -15 -8 0 -15 7 -15 15 0 8 7 15 15 15 8 0 15 -7 15 -15z"/>
<path d="M1100 280 l0 -40 40 0 40 0 0 40 0 40 -40 0 -40 0 0 -40z m50 -5 c0
-8 -7 -15 -15 -15 -8 0 -15 7 -15 15 0 8 7 15 15 15 8 0 15 -7 15 -15z"/>
<path d="M1200 280 l0 -40 40 0 40 0 0 40 0 40 -40 0 -40 0 0 -40z m58 -2 c-6
-18 -28 -21 -28 -4 0 9 7 16 16 16 9 0 14 -5 12 -12z"/>
<path d="M1310 280 l0 -40 40 0 40 0 0 40 0 40 -40 0 -40 0 0 -40z m50 -5 c0
-8 -7 -15 -15 -15 -8 0 -15 7 -15 15 0 8 7 15 15 15 8 0 15 -7 15 -15z"/>
</g>
</svg>
