<?xml version="1.0" standalone="no"?>
<!DOCTYPE svg PUBLIC "-//W3C//DTD SVG 20010904//EN"
 "http://www.w3.org/TR/2001/REC-SVG-20010904/DTD/svg10.dtd">
<svg version="1.0" xmlns="http://www.w3.org/2000/svg"
 width="260.000000pt" height="158.000000pt" viewBox="0 0 260.000000 158.000000"
 preserveAspectRatio="xMidYMid meet">

<g transform="translate(0.000000,158.000000) scale(0.100000,-0.100000)"
fill="#000000" stroke="none">
<path d="M158 1482 c-59 -36 -58 -23 -58 -696 0 -666 0 -664 53 -699 24 -15
71 -17 501 -17 338 0 482 3 500 12 14 6 34 23 43 37 17 24 18 72 21 626 2 330
0 620 -3 644 -5 32 -16 54 -40 78 l-33 33 -479 0 c-432 -1 -481 -2 -505 -18z
m982 -62 c20 -20 20 -33 20 -634 0 -589 -1 -615 -19 -637 l-19 -24 -462 0
-462 0 -19 24 c-18 22 -19 47 -19 635 0 537 2 614 16 634 l15 22 465 0 c451 0
465 -1 484 -20z"/>
<path d="M214 1377 c-2 -7 -3 -94 -2 -192 l3 -180 439 -3 c345 -2 441 0 448
10 9 15 11 339 2 362 -5 14 -54 16 -445 16 -349 0 -441 -3 -445 -13z m834
-179 l3 -138 -391 0 -390 0 0 133 c0 74 3 137 7 140 4 4 178 6 387 5 l381 -3
3 -137z"/>
<path d="M867 1262 c-11 -12 -17 -36 -17 -70 0 -41 4 -54 22 -66 31 -22 64
-20 88 4 27 27 28 110 2 133 -25 22 -75 21 -95 -1z m71 -71 c-2 -28 -7 -36
-23 -36 -15 0 -21 8 -23 33 -2 18 2 40 9 48 19 23 41 -3 37 -45z"/>
<path d="M216 944 c-3 -8 -6 -57 -6 -109 0 -67 4 -96 14 -104 9 -8 50 -11 117
-9 l104 3 0 115 0 115 -111 3 c-95 2 -113 0 -118 -14z m174 -104 l0 -60 -60 0
-60 0 0 60 0 60 60 0 60 0 0 -60z"/>
<path d="M544 947 c-2 -7 -3 -60 -2 -118 l3 -104 104 -3 c67 -2 108 1 117 9
18 15 20 199 2 217 -18 18 -217 17 -224 -1z m176 -107 l0 -60 -60 0 -60 0 0
60 0 60 60 0 60 0 0 -60z"/>
<path d="M872 948 c-18 -18 -17 -202 2 -217 9 -8 50 -11 117 -9 l104 3 0 115
0 115 -105 3 c-73 2 -109 -1 -118 -10z m168 -108 l0 -60 -60 0 -60 0 0 60 0
60 60 0 60 0 0 -60z"/>
<path d="M214 667 c-2 -7 -3 -58 -2 -113 l3 -99 115 0 115 0 3 113 3 112 -116
0 c-87 0 -117 -3 -121 -13z m176 -102 l0 -66 -57 3 -58 3 -3 49 c-5 71 -1 76
63 76 l55 0 0 -65z"/>
<path d="M540 565 l0 -116 118 3 117 3 0 110 0 110 -117 3 -118 3 0 -116z
m175 0 l0 -60 -57 -3 -58 -3 0 66 0 66 58 -3 57 -3 0 -60z"/>
<path d="M867 673 c-4 -3 -7 -113 -7 -243 0 -191 3 -240 14 -249 9 -8 50 -11
117 -9 l104 3 3 253 2 252 -113 0 c-63 0 -117 -3 -120 -7z m173 -243 l0 -200
-60 0 -60 0 0 193 c0 107 3 197 7 200 3 4 30 7 60 7 l53 0 0 -200z"/>
<path d="M216 394 c-3 -8 -6 -57 -6 -109 0 -67 4 -96 14 -104 9 -8 50 -11 117
-9 l104 3 0 115 0 115 -111 3 c-95 2 -113 0 -118 -14z m174 -104 l0 -60 -60 0
-60 0 0 60 0 60 60 0 60 0 0 -60z"/>
<path d="M544 397 c-2 -7 -3 -60 -2 -118 l3 -104 104 -3 c67 -2 108 1 117 9
10 8 14 37 14 104 0 52 -3 100 -6 109 -5 13 -25 16 -115 16 -82 0 -111 -3
-115 -13z m176 -107 l0 -60 -60 0 -60 0 0 60 0 60 60 0 60 0 0 -60z"/>
<path d="M1447 1122 l-127 -127 0 -463 0 -462 463 0 463 0 127 128 127 129 0
461 0 462 -463 0 -462 0 -128 -128z m858 -22 l-90 -90 -400 0 -400 0 90 90 90
90 400 0 400 0 -90 -90z m135 -351 l0 -400 -90 -92 -89 -92 -1 148 0 147 -30
0 -30 0 0 -170 0 -170 -412 2 -413 3 -3 413 -2 412 415 0 415 0 0 -75 0 -75
30 0 30 0 0 87 0 88 87 87 c48 49 89 88 90 88 2 0 3 -180 3 -401z"/>
<path d="M1570 540 l0 -200 35 0 35 0 1 138 0 137 60 -117 c52 -103 62 -118
84 -118 22 0 32 15 84 118 l60 117 0 -137 1 -138 35 0 35 0 0 201 0 200 -42
-3 -43 -3 -64 -124 -63 -124 -54 99 c-29 54 -59 111 -65 127 -10 24 -17 27
-55 27 l-44 0 0 -200z"/>
<path d="M2100 720 c0 -17 7 -20 40 -20 47 0 49 -8 15 -40 -32 -30 -32 -50 -1
-50 38 0 56 -10 56 -31 0 -30 -44 -46 -73 -26 -18 12 -27 13 -36 4 -19 -19
-12 -35 20 -46 65 -23 120 -7 140 40 9 24 9 33 -5 54 -10 15 -26 29 -37 33
-19 7 -19 9 6 32 14 13 25 34 25 47 0 22 -3 23 -75 23 -68 0 -75 -2 -75 -20z"/>
</g>
</svg>
