<?xml version="1.0" standalone="no"?>
<!DOCTYPE svg PUBLIC "-//W3C//DTD SVG 20010904//EN"
 "http://www.w3.org/TR/2001/REC-SVG-20010904/DTD/svg10.dtd">
<svg version="1.0" xmlns="http://www.w3.org/2000/svg"
 width="1952.000000pt" height="788.000000pt" viewBox="0 0 1952.000000 788.000000"
 preserveAspectRatio="xMidYMid meet">

<g transform="translate(0.000000,788.000000) scale(0.100000,-0.100000)"
fill="#000000" stroke="none">
<path d="M11765 7804 c-325 -32 -506 -78 -697 -176 -288 -147 -470 -372 -588
-726 -177 -530 -168 -1413 19 -1918 165 -447 480 -711 965 -809 298 -60 673
-61 960 -4 696 140 1032 585 1107 1466 15 187 7 666 -16 823 -116 825 -474
1218 -1206 1325 -100 15 -461 27 -544 19z m360 -1020 c69 -24 145 -102 173
-176 46 -124 72 -348 72 -633 0 -419 -50 -669 -153 -761 -74 -67 -114 -79
-267 -79 -128 0 -138 2 -192 28 -178 87 -236 314 -225 877 6 285 16 382 52
506 42 145 112 217 240 251 68 17 235 10 300 -13z"/>
<path d="M6885 7748 c-3 -7 -6 -175 -7 -373 l-3 -359 -59 -18 c-33 -10 -68
-26 -79 -36 -47 -43 -47 -38 -47 -617 0 -589 0 -595 52 -610 13 -4 49 -16 81
-27 l57 -21 0 -743 0 -744 585 0 585 0 0 374 0 373 223 6 c259 6 421 26 602
72 504 129 730 381 827 923 20 112 22 161 23 407 0 306 -9 396 -55 583 -94
373 -277 575 -635 701 -171 61 -359 95 -610 111 -244 15 -1534 13 -1540 -2z
m725 -1393 c0 -432 -3 -785 -6 -785 -3 0 -102 26 -220 57 l-214 57 2 670 3
671 210 57 c116 31 213 56 218 57 4 1 7 -352 7 -784z m805 650 c380 -70 700
-134 713 -141 l22 -14 0 -495 c0 -435 -2 -495 -16 -509 -8 -9 -19 -16 -23 -16
-4 0 -118 -20 -252 -45 -601 -112 -1159 -215 -1164 -215 -3 0 -5 354 -5 786 0
743 1 785 18 780 9 -2 328 -62 707 -131z m-1325 -650 c0 -520 -2 -645 -13
-645 -19 0 -257 69 -286 83 l-26 12 -3 541 c-2 520 -1 541 17 558 10 9 63 30
117 45 55 15 115 33 134 38 19 6 41 11 48 12 9 1 12 -134 12 -644z"/>
<path d="M7955 6918 c-3 -7 -4 -265 -3 -572 3 -527 4 -559 21 -570 15 -9 22
-7 38 13 18 22 19 44 19 563 0 353 -4 546 -10 559 -12 21 -58 26 -65 7z"/>
<path d="M8208 6899 c-17 -9 -18 -46 -18 -542 0 -401 3 -536 12 -545 18 -18
46 -14 58 7 6 13 10 198 10 533 0 449 -2 516 -16 536 -17 25 -22 26 -46 11z"/>
<path d="M8448 6859 c-17 -9 -18 -44 -18 -502 0 -370 3 -496 12 -505 18 -18
46 -14 58 7 6 13 10 188 10 500 0 423 -2 481 -16 495 -18 19 -23 19 -46 5z"/>
<path d="M8682 6828 c-17 -17 -17 -929 0 -946 18 -18 46 -14 58 7 6 13 10 179
10 470 0 395 -2 451 -16 465 -19 19 -36 20 -52 4z"/>
<path d="M8920 6790 c-7 -12 -9 -163 -8 -446 3 -394 4 -428 21 -438 12 -8 22
-8 35 0 16 10 17 44 20 438 1 283 -1 434 -8 446 -6 11 -19 20 -30 20 -11 0
-24 -9 -30 -20z"/>
<path d="M170 5970 l0 -1770 580 0 580 0 0 1770 0 1770 -580 0 -580 0 0 -1770z"/>
<path d="M2130 5970 l0 -1770 580 0 580 0 0 910 0 910 25 0 c14 0 25 -1 26 -2
0 -2 65 -403 143 -893 l142 -890 486 -3 486 -2 11 62 c5 35 69 428 141 873 72
446 133 820 135 833 4 15 13 22 30 22 l25 0 0 -910 0 -910 580 0 580 0 0 1770
0 1770 -887 -2 -888 -3 -105 -662 c-58 -364 -108 -655 -111 -645 -3 9 -62 308
-130 665 l-124 647 -862 0 -863 0 0 -1770z"/>
<path d="M14270 5970 l0 -1770 580 0 580 0 0 455 0 456 142 -3 141 -3 82 -395
c46 -217 88 -421 95 -452 l11 -58 591 0 590 0 -7 28 c-3 15 -76 281 -161 591
-85 310 -154 569 -154 575 0 7 21 32 46 56 62 61 154 200 192 291 39 95 76
223 99 342 25 131 25 618 1 757 -35 193 -100 372 -179 486 -158 230 -482 366
-963 404 -73 6 -468 10 -907 10 l-779 0 0 -1770z m1530 776 c106 -55 150 -151
150 -326 0 -141 -29 -231 -94 -288 -50 -44 -91 -52 -268 -52 l-158 0 0 346 0
346 168 -4 c138 -3 173 -7 202 -22z"/>
<path d="M8737 3414 c-367 -57 -684 -249 -850 -515 -102 -163 -141 -308 -141
-519 0 -157 13 -228 61 -348 148 -372 553 -617 1078 -652 167 -11 236 -35 317
-108 99 -89 104 -226 11 -314 -46 -44 -134 -78 -221 -87 -85 -9 -113 -20 -136
-53 -14 -19 -16 -69 -16 -343 0 -347 0 -345 57 -374 54 -27 294 -5 465 44 386
110 650 352 755 692 25 82 27 100 27 268 0 207 -14 277 -84 424 -53 110 -111
190 -201 277 -91 87 -174 143 -293 200 -172 81 -336 117 -641 143 -156 13
-248 59 -289 145 -22 47 -21 150 3 202 23 51 89 108 150 129 115 41 289 28
383 -29 60 -35 94 -90 103 -168 7 -57 35 -95 89 -119 37 -17 70 -19 346 -19
279 0 309 2 347 20 24 10 52 33 64 52 18 29 20 43 15 123 -10 164 -74 344
-170 479 -66 93 -209 223 -311 283 -255 151 -608 216 -918 167z m432 -219
c281 -46 516 -190 643 -396 44 -69 88 -181 102 -256 l6 -33 -219 0 -219 0 -7
28 c-35 141 -171 263 -345 309 -80 21 -263 23 -340 4 -92 -22 -195 -77 -254
-134 -173 -169 -182 -462 -19 -625 105 -105 222 -149 433 -163 163 -11 231
-21 339 -50 367 -102 600 -347 641 -674 45 -362 -155 -673 -524 -816 -95 -36
-208 -65 -293 -75 l-63 -7 0 174 0 174 83 23 c180 50 311 172 351 327 62 234
-86 461 -361 556 -36 12 -117 25 -213 34 -172 15 -265 33 -376 70 -302 101
-508 305 -560 555 -23 109 -15 290 18 392 79 242 286 439 563 535 176 61 416
80 614 48z"/>
<path d="M13005 3416 c-40 -18 -73 -56 -85 -97 -6 -21 -10 -435 -10 -1094 l0
-1061 -26 -52 c-67 -134 -240 -218 -475 -229 -141 -7 -251 12 -357 62 -96 46
-180 127 -213 210 l-24 60 -5 798 -5 799 -28 24 -28 24 -376 0 -375 0 -34 -34
-35 -35 3 -858 c3 -840 4 -860 25 -933 37 -132 82 -234 142 -326 182 -277 487
-465 890 -551 117 -25 143 -27 376 -28 288 0 399 16 608 85 440 147 717 436
804 840 17 79 18 158 18 1197 0 1107 0 1112 -21 1139 -11 15 -33 37 -48 48
-26 20 -42 21 -359 23 -262 2 -338 0 -362 -11z m575 -1233 c0 -665 -4 -1051
-11 -1093 -60 -380 -365 -656 -828 -750 -217 -44 -503 -46 -722 -4 -449 85
-779 366 -853 726 -14 67 -16 182 -16 833 l0 755 225 0 225 0 0 -722 c0 -600
3 -732 15 -778 49 -186 199 -345 399 -424 117 -47 196 -60 361 -59 128 0 165
4 250 27 269 70 437 214 490 421 13 51 15 196 15 1077 l0 1018 225 0 225 0 0
-1027z"/>
<path d="M15044 3396 l-34 -34 0 -1260 0 -1260 -157 -4 c-147 -3 -160 -5 -191
-26 -62 -45 -63 -53 -60 -362 l3 -278 25 -27 c54 -57 17 -55 817 -55 823 0
782 -3 830 69 23 33 23 40 23 305 0 254 -1 273 -20 304 -35 57 -84 72 -242 72
l-138 0 -2 1265 -3 1265 -28 27 -27 28 -381 3 -380 3 -35 -35z m636 -1432 c0
-1381 -4 -1296 65 -1328 25 -12 67 -16 184 -16 l151 0 0 -160 0 -160 -635 0
-635 0 0 159 0 160 176 3 176 3 29 33 29 32 0 1260 0 1260 230 0 230 0 0
-1246z"/>
<path d="M17135 3416 c-40 -18 -73 -56 -85 -97 -6 -19 -10 -142 -10 -273 0
-219 2 -243 20 -281 13 -26 34 -49 59 -63 l39 -22 1057 0 c1055 0 1057 0 1095
21 73 41 75 50 75 356 0 259 -1 273 -21 299 -11 15 -33 37 -48 48 -27 21 -34
21 -1089 23 -870 2 -1067 0 -1092 -11z m2035 -361 l0 -155 -955 0 -955 0 0
155 0 155 955 0 955 0 0 -155z"/>
<path d="M17833 2284 c-66 -33 -63 23 -63 -1076 l0 -994 23 -44 c40 -79 44
-80 422 -80 368 0 376 1 423 70 l22 33 0 1009 c0 1119 4 1055 -65 1084 -53 22
-717 20 -762 -2z m607 -1094 l0 -890 -225 0 -225 0 0 890 0 890 225 0 225 0 0
-890z"/>
</g>
</svg>
